<?xml version="1.0" encoding="UTF-8"?>
<svg width="30px" height="30px" viewBox="0 0 30 30" version="1.1" xmlns="http://www.w3.org/2000/svg" xmlns:xlink="http://www.w3.org/1999/xlink">
    <title>youtube</title>
    <g id="youtube" stroke="none" stroke-width="1" fill="none" fill-rule="evenodd">
        <g id="youtube-(6)" transform="translate(1.000000, 1.000000)" fill="#FFFFFF" fill-rule="nonzero">
            <g id="Group-57">
                <polygon id="Path" points="11.8939615 16.1315728 16.3133831 13.5862281 11.8939615 11.0408834"></polygon>
                <path d="M13.5862281,1.24344979e-14 C6.08390863,1.24344979e-14 1.24344979e-14,6.08390863 1.24344979e-14,13.5862281 C1.24344979e-14,21.0885475 6.08390863,27.1724562 13.5862281,27.1724562 C21.0885475,27.1724562 27.1724562,21.0885475 27.1724562,13.5862281 C27.1724562,6.08390863 21.0885475,1.24344979e-14 13.5862281,1.24344979e-14 Z M22.0756205,13.6001178 C22.0756205,13.6001178 22.0756205,16.3554669 21.7260239,17.6841128 C21.5301165,18.4113541 20.9566987,18.9847718 20.2294574,19.1804719 C18.9008116,19.5302029 13.5862281,19.5302029 13.5862281,19.5302029 C13.5862281,19.5302029 8.28553434,19.5302029 6.94299874,19.1665822 C6.2157574,18.9708822 5.64233961,18.3972571 5.44643225,17.6700157 C5.0967013,16.3554669 5.0967013,13.5862281 5.0967013,13.5862281 C5.0967013,13.5862281 5.0967013,10.8310863 5.44643225,9.50244042 C5.64213231,8.77519909 6.22964709,8.18768431 6.94299874,7.99198424 C8.2716446,7.64225329 13.5862281,7.64225329 13.5862281,7.64225329 C13.5862281,7.64225329 18.9008116,7.64225329 20.2294574,8.00587393 C20.9566987,8.201574 21.5301165,8.77519909 21.7260239,9.50244042 C22.0896445,10.8310863 22.0756205,13.6001178 22.0756205,13.6001178 L22.0756205,13.6001178 Z" id="Shape"></path>
            </g>
        </g>
    </g>
</svg>