<?xml version="1.0" encoding="UTF-8"?>
<svg width="30px" height="30px" viewBox="0 0 30 30" version="1.1" xmlns="http://www.w3.org/2000/svg" xmlns:xlink="http://www.w3.org/1999/xlink">
    <title>face</title>
    <g id="face" stroke="none" stroke-width="1" fill="none" fill-rule="evenodd">
        <g id="logo-de-facebook-(5)-2" transform="translate(1.000000, 1.000000)" fill="#FFFFFF" fill-rule="nonzero">
            <g id="logo-de-facebook-(5)">
                <path d="M13.7985129,0 C6.25105753,0 0.132678009,6.11837952 0.132678009,13.6658349 C0.132678009,21.2132902 6.25105753,27.3316698 13.7985129,27.3316698 C21.3459683,27.3316698 27.4643478,21.2132902 27.4643478,13.6658349 C27.4643478,6.11837952 21.3459683,0 13.7985129,0 Z M19.0120813,6.95944 L17.1219321,6.96027883 C15.6397307,6.96027883 15.3531327,7.66461106 15.3531327,8.69804177 L15.3531327,10.9768459 L18.8876558,10.9768459 L18.8859782,14.5460405 L15.3534123,14.5460405 L15.3534123,23.7054352 L11.6667825,23.7054352 L11.6667825,14.5460405 L8.58494446,14.5460405 L8.58494446,10.9768459 L11.6667825,10.9768459 L11.6667825,8.34461742 C11.6667825,5.28990138 13.533165,3.62623453 16.2579438,3.62623453 L19.0123609,3.63042865 L19.0123609,6.95944 L19.0120813,6.95944 Z" id="Shape"></path>
            </g>
        </g>
    </g>
</svg>