<?xml version="1.0" encoding="UTF-8"?>
<svg width="30px" height="30px" viewBox="0 0 30 30" version="1.1" xmlns="http://www.w3.org/2000/svg" xmlns:xlink="http://www.w3.org/1999/xlink">
    <title>insta</title>
    <g id="insta" stroke="none" stroke-width="1" fill="none" fill-rule="evenodd">
        <g id="Group-56" transform="translate(1.000000, 1.000000)" fill="#FFFFFF" fill-rule="nonzero">
            <path d="M13.5862281,1.24344979e-14 C6.08390863,1.24344979e-14 1.24344979e-14,6.08390863 1.24344979e-14,13.5862281 C1.24344979e-14,21.0885475 6.08390863,27.1724562 13.5862281,27.1724562 C21.0885475,27.1724562 27.1724562,21.0885475 27.1724562,13.5862281 C27.1724562,6.08390863 21.0885475,1.24344979e-14 13.5862281,1.24344979e-14 Z M21.3406357,16.8026332 C21.3029055,17.6331146 21.1708493,18.2001058 20.9780516,18.6964045 C20.5727618,19.7443534 19.7443534,20.5727618 18.6964045,20.9780516 C18.2003131,21.1708493 17.6331146,21.3026982 16.8028405,21.3406357 C15.970908,21.3785734 15.7051373,21.387695 13.5864354,21.387695 C11.4675261,21.387695 11.2019628,21.3785734 10.3698229,21.3406357 C9.53954882,21.3026982 8.97235033,21.1708493 8.47625898,20.9780516 C7.95549779,20.7821443 7.48407622,20.4751191 7.09433457,20.0781216 C6.69754442,19.6885872 6.39051918,19.2169584 6.19461182,18.6964045 C6.00181412,18.2003131 5.869758,17.6331146 5.83202771,16.8028405 C5.79367549,15.9707007 5.78476117,15.70493 5.78476117,13.5862281 C5.78476117,11.4675261 5.79367549,11.2017555 5.83182042,10.3698229 C5.8695507,9.53934152 6.00139947,8.97235033 6.19419723,8.47605168 C6.39010459,7.95549779 6.69733707,7.48386892 7.09433457,7.09433457 C7.48386892,6.69733707 7.95549779,6.39031188 8.47605168,6.19440452 C8.97235033,6.00160682 9.53934152,5.869758 10.3698229,5.83182042 C11.2017555,5.79388279 11.4675261,5.78476117 13.5862281,5.78476117 C15.70493,5.78476117 15.9707007,5.79388279 16.8026332,5.83202771 C17.6331146,5.869758 18.2001058,6.00160682 18.6964045,6.19419723 C19.2169584,6.39010459 19.6885872,6.69733707 20.0783289,7.09433457 C20.4751191,7.48407622 20.7823516,7.95549779 20.9780516,8.47605168 C21.1710567,8.97235033 21.3029055,9.53934152 21.3408431,10.3698229 C21.3787807,11.2017555 21.387695,11.4675261 21.387695,13.5862281 C21.387695,15.70493 21.3787807,15.9707007 21.3406357,16.8026332 L21.3406357,16.8026332 Z" id="Shape"></path>
            <g id="instagram-(15)" transform="translate(6.804000, 6.804000)">
                <path d="M9.38271713,6.78222817 C9.38271713,8.21846761 8.21846761,9.38271713 6.78222817,9.38271713 C5.34598872,9.38271713 4.1817392,8.21846761 4.1817392,6.78222817 C4.1817392,5.34598872 5.34598872,4.1817392 6.78222817,4.1817392 C8.21846761,4.1817392 9.38271713,5.34598872 9.38271713,6.78222817 Z" id="Path"></path>
                <path d="M12.8638564,2.18120363 C12.7388488,1.84246006 12.5394172,1.53584946 12.2802804,1.28417589 C12.0286069,1.02503913 11.7222036,0.825607523 11.3832527,0.700599949 C11.1083605,0.593835601 10.6954002,0.466754959 9.93478205,0.432134278 C9.1119711,0.394611292 8.8652729,0.386526212 6.78222817,0.386526212 C4.69897614,0.386526212 4.45227794,0.394403996 3.62967428,0.431926982 C2.86905615,0.466754959 2.45588855,0.593835601 2.18120363,0.700599949 C1.84225276,0.825607523 1.53564217,1.02503913 1.28417589,1.28417589 C1.02503913,1.53584946 0.825607523,1.84225276 0.700392653,2.18120363 C0.593628305,2.45609585 0.466547663,2.86926345 0.431926982,3.62988158 C0.394403996,4.45248523 0.386318916,4.69918343 0.386318916,6.78243546 C0.386318916,8.8654802 0.394403996,9.1121784 0.431926982,9.93498934 C0.466547663,10.6956075 0.593628305,11.1085678 0.700392653,11.3834601 C0.825607523,11.7224109 1.02483183,12.0288142 1.28396859,12.2804877 C1.53564217,12.5396245 1.84204541,12.7390562 2.18099628,12.8640637 C2.45588855,12.9710353 2.86905615,13.098116 3.62967428,13.1327366 C4.45227794,13.1702597 4.69876884,13.1781374 6.78202087,13.1781374 C8.8654802,13.1781374 9.1121784,13.1702597 9.93457475,13.1327366 C10.6951929,13.098116 11.1083605,12.9710353 11.3832527,12.8640637 C12.0636421,12.60161 12.6014027,12.0638494 12.8638564,11.3834601 C12.9706207,11.1085678 13.0977014,10.6956075 13.1325294,9.93498934 C13.1700523,9.1121784 13.1779301,8.8654802 13.1779301,6.78243546 C13.1779301,4.69918343 13.1700523,4.45248523 13.1325294,3.62988158 C13.0979087,2.86926345 12.970828,2.45609585 12.8638564,2.18120363 L12.8638564,2.18120363 Z M6.78222817,10.7882748 C4.56961508,10.7882748 2.77597425,8.99484125 2.77597425,6.78222817 C2.77597425,4.56961508 4.56961508,2.77618155 6.78222817,2.77618155 C8.99463396,2.77618155 10.7882748,4.56961508 10.7882748,6.78222817 C10.7882748,8.99484125 8.99463396,10.7882748 6.78222817,10.7882748 Z M10.9466592,3.55400637 C10.4296295,3.55400637 10.01045,3.13482681 10.01045,2.61779717 C10.01045,2.10076753 10.4296295,1.68158797 10.9466592,1.68158797 C11.4636888,1.68158797 11.8828684,2.10076753 11.8828684,2.61779717 C11.8826611,3.13482681 11.4636888,3.55400637 10.9466592,3.55400637 Z" id="Shape"></path>
            </g>
        </g>
    </g>
</svg>