<?xml version="1.0" encoding="UTF-8"?>
<svg width="30px" height="30px" viewBox="0 0 30 30" version="1.1" xmlns="http://www.w3.org/2000/svg" xmlns:xlink="http://www.w3.org/1999/xlink">
    <title>twitter</title>
    <g id="twitter" stroke="none" stroke-width="1" fill="none" fill-rule="evenodd">
        <g id="gorjeo-(1)-2" transform="translate(1.000000, 1.000000)" fill="#FFFFFF" fill-rule="nonzero">
            <g id="gorjeo-(1)">
                <path d="M13.5862281,0 C6.08390863,0 0,6.08390863 0,13.5862281 C0,21.0885475 6.08390863,27.1724562 13.5862281,27.1724562 C21.0885475,27.1724562 27.1724562,21.0885475 27.1724562,13.5862281 C27.1724562,6.08390863 21.0885475,0 13.5862281,0 Z M19.7895469,10.5930951 C19.7955589,10.7268097 19.7984612,10.8611462 19.7984612,10.9961046 C19.7984612,15.1167933 16.6618702,19.8685318 10.9258267,19.8687391 L10.926034,19.8687391 L10.9258267,19.8687391 C9.16473344,19.8687391 7.52595274,19.3525387 6.14589415,18.4679496 C6.38989729,18.4967656 6.63825391,18.5110699 6.88972019,18.5110699 C8.35083676,18.5110699 9.69544548,18.0126981 10.7628815,17.1762047 C9.39774919,17.150913 8.24676747,16.2493245 7.84956268,15.0102363 C8.03966538,15.0467227 8.23515814,15.0666244 8.43562634,15.0666244 C8.72026211,15.0666244 8.99598357,15.0282722 9.25802264,14.9567505 C7.83111216,14.6710781 6.75621299,13.4100151 6.75621299,11.8999735 C6.75621299,11.8858765 6.75621299,11.8732306 6.75662759,11.8601701 C7.17684373,12.0938078 7.65738686,12.2343636 8.16902644,12.2501191 C7.33170386,11.6914203 6.78129742,10.7363459 6.78129742,9.65439819 C6.78129742,9.08305357 6.9357429,8.5477807 7.20358663,8.08693192 C8.7414077,9.973862 11.0396395,11.214816 13.6314215,11.3452136 C13.5779357,11.1167586 13.5503636,10.8787675 13.5503636,10.6341424 C13.5503636,8.91264522 14.9470069,7.51600189 16.669126,7.51600189 C17.5661537,7.51600189 18.3763188,7.89517075 18.9453831,8.5013434 C19.6558324,8.36120225 20.322954,8.1016509 20.9256024,7.74445681 C20.6923793,8.47232008 20.1981537,9.08305357 19.5542507,9.46927092 C20.1850932,9.3938103 20.7862905,9.22651161 21.3449892,8.97815499 C20.9276754,9.6036074 20.3984146,10.1529773 19.7895469,10.5930951 Z" id="Shape"></path>
            </g>
        </g>
    </g>
</svg>